<mxfile host="65bd71144e">
    <diagram id="N4jZUupzXLjIpXl97eKw" name="Page-1">
        <mxGraphModel dx="3207" dy="1677" grid="1" gridSize="10" guides="1" tooltips="1" connect="1" arrows="1" fold="1" page="1" pageScale="1" pageWidth="827" pageHeight="1169" math="0" shadow="0">
            <root>
                <mxCell id="0"/>
                <mxCell id="1" parent="0"/>
                <mxCell id="5" value="" style="edgeStyle=none;html=1;fontFamily=Courier New;" edge="1" parent="1" source="2" target="4">
                    <mxGeometry relative="1" as="geometry"/>
                </mxCell>
                <mxCell id="2" value="INICIO" style="ellipse;whiteSpace=wrap;html=1;fontFamily=Courier New;fillColor=#60a917;fontColor=#ffffff;strokeColor=#2D7600;" vertex="1" parent="1">
                    <mxGeometry x="494" y="10" width="120" height="50" as="geometry"/>
                </mxCell>
                <mxCell id="7" value="" style="edgeStyle=none;html=1;fontFamily=Courier New;" edge="1" parent="1" source="4" target="6">
                    <mxGeometry relative="1" as="geometry"/>
                </mxCell>
                <mxCell id="4" value="x, y" style="shape=parallelogram;perimeter=parallelogramPerimeter;whiteSpace=wrap;html=1;fixedSize=1;fontFamily=Courier New;fillColor=#1ba1e2;fontColor=#ffffff;strokeColor=#006EAF;" vertex="1" parent="1">
                    <mxGeometry x="494" y="100" width="120" height="40" as="geometry"/>
                </mxCell>
                <mxCell id="9" value="" style="edgeStyle=none;html=1;fontFamily=Courier New;" edge="1" parent="1" source="6" target="8">
                    <mxGeometry relative="1" as="geometry">
                        <Array as="points">
                            <mxPoint x="730" y="220"/>
                        </Array>
                    </mxGeometry>
                </mxCell>
                <mxCell id="11" value="" style="edgeStyle=none;html=1;fontFamily=Courier New;" edge="1" parent="1" source="6" target="10">
                    <mxGeometry relative="1" as="geometry">
                        <Array as="points">
                            <mxPoint x="440" y="220"/>
                        </Array>
                    </mxGeometry>
                </mxCell>
                <mxCell id="6" value="x == 0&lt;br&gt;&amp;amp;&lt;br&gt;y == 0" style="rhombus;whiteSpace=wrap;html=1;fontFamily=Courier New;fillColor=#e3c800;fontColor=#FFFFFF;strokeColor=#B09500;" vertex="1" parent="1">
                    <mxGeometry x="514" y="180" width="80" height="80" as="geometry"/>
                </mxCell>
                <mxCell id="39" style="edgeStyle=none;html=1;entryX=0.5;entryY=0;entryDx=0;entryDy=0;fontFamily=Courier New;fontSize=13;fontColor=#FFFFFF;" edge="1" parent="1" source="8" target="38">
                    <mxGeometry relative="1" as="geometry">
                        <Array as="points">
                            <mxPoint x="730" y="1000"/>
                            <mxPoint x="565" y="1000"/>
                        </Array>
                    </mxGeometry>
                </mxCell>
                <mxCell id="8" value="&lt;p style=&quot;line-height: 19px;&quot;&gt;&lt;font style=&quot;font-size: 12px;&quot;&gt;Los puntos que usted escribi贸 en x y en y se encuentran en el origen.&lt;/font&gt;&lt;/p&gt;" style="shape=document;whiteSpace=wrap;html=1;boundedLbl=1;align=center;fontFamily=Courier New;fillColor=#fa6800;fontColor=#FFFFFF;strokeColor=#C73500;" vertex="1" parent="1">
                    <mxGeometry x="640" y="260" width="180" height="100" as="geometry"/>
                </mxCell>
                <mxCell id="13" value="" style="edgeStyle=none;html=1;fontFamily=Courier New;fontSize=12;fontColor=#FFFFFF;" edge="1" parent="1" source="10" target="12">
                    <mxGeometry relative="1" as="geometry">
                        <Array as="points">
                            <mxPoint x="565" y="320"/>
                        </Array>
                    </mxGeometry>
                </mxCell>
                <mxCell id="17" value="" style="edgeStyle=none;html=1;fontFamily=Courier New;fontSize=12;fontColor=#F0F0F0;" edge="1" parent="1" source="10" target="16">
                    <mxGeometry relative="1" as="geometry">
                        <Array as="points">
                            <mxPoint x="310" y="320"/>
                        </Array>
                    </mxGeometry>
                </mxCell>
                <mxCell id="10" value="x == 0&lt;br&gt;&amp;amp;&lt;br&gt;y != 0" style="rhombus;whiteSpace=wrap;html=1;fontFamily=Courier New;fillColor=#e3c800;fontColor=#FFFFFF;strokeColor=#B09500;" vertex="1" parent="1">
                    <mxGeometry x="400" y="280" width="80" height="80" as="geometry"/>
                </mxCell>
                <mxCell id="40" style="edgeStyle=none;html=1;entryX=0.5;entryY=0;entryDx=0;entryDy=0;fontFamily=Courier New;fontSize=13;fontColor=#FFFFFF;" edge="1" parent="1" source="12" target="38">
                    <mxGeometry relative="1" as="geometry"/>
                </mxCell>
                <mxCell id="12" value="&lt;span style=&quot;font-size: 13px; background-color: initial;&quot;&gt;Los puntos que usted ingres贸 se encuentran en el eje y&lt;/span&gt;" style="shape=document;whiteSpace=wrap;html=1;boundedLbl=1;fontFamily=Courier New;fillColor=#fa6800;fontColor=#FFFFFF;strokeColor=#C73500;" vertex="1" parent="1">
                    <mxGeometry x="470" y="380" width="190" height="90" as="geometry"/>
                </mxCell>
                <mxCell id="19" value="" style="edgeStyle=none;html=1;fontFamily=Courier New;fontSize=12;fontColor=#F0F0F0;" edge="1" parent="1" source="16" target="18">
                    <mxGeometry relative="1" as="geometry">
                        <Array as="points">
                            <mxPoint x="415" y="435"/>
                        </Array>
                    </mxGeometry>
                </mxCell>
                <mxCell id="21" value="" style="edgeStyle=none;html=1;fontFamily=Courier New;fontSize=13;fontColor=#FFFFFF;" edge="1" parent="1" source="16" target="20">
                    <mxGeometry relative="1" as="geometry">
                        <Array as="points">
                            <mxPoint x="130" y="435"/>
                        </Array>
                    </mxGeometry>
                </mxCell>
                <mxCell id="16" value="x != 0&lt;br&gt;&amp;amp;&lt;br&gt;y == 0" style="rhombus;whiteSpace=wrap;html=1;fontFamily=Courier New;fillColor=#e3c800;fontColor=#FFFFFF;strokeColor=#B09500;" vertex="1" parent="1">
                    <mxGeometry x="270" y="395" width="80" height="80" as="geometry"/>
                </mxCell>
                <mxCell id="41" style="edgeStyle=none;html=1;entryX=0.5;entryY=0;entryDx=0;entryDy=0;fontFamily=Courier New;fontSize=13;fontColor=#FFFFFF;" edge="1" parent="1" source="18" target="38">
                    <mxGeometry relative="1" as="geometry">
                        <Array as="points">
                            <mxPoint x="420" y="1000"/>
                            <mxPoint x="565" y="1000"/>
                        </Array>
                    </mxGeometry>
                </mxCell>
                <mxCell id="18" value="&lt;div style=&quot;font-size: 14px; line-height: 19px;&quot;&gt;&lt;font&gt;Los puntos que usted ingres贸 se encuentran en el eje x&lt;/font&gt;&lt;/div&gt;" style="shape=document;whiteSpace=wrap;html=1;boundedLbl=1;fontFamily=Courier New;fillColor=#fa6800;fontColor=#FFFFFF;strokeColor=#C73500;" vertex="1" parent="1">
                    <mxGeometry x="320" y="490" width="190" height="80" as="geometry"/>
                </mxCell>
                <mxCell id="23" value="" style="edgeStyle=none;html=1;fontFamily=Courier New;fontSize=13;fontColor=#FFFFFF;" edge="1" parent="1" source="20" target="22">
                    <mxGeometry relative="1" as="geometry">
                        <Array as="points">
                            <mxPoint x="240" y="585"/>
                        </Array>
                    </mxGeometry>
                </mxCell>
                <mxCell id="25" value="" style="edgeStyle=none;html=1;fontFamily=Courier New;fontSize=13;fontColor=#FFFFFF;" edge="1" parent="1" source="20" target="24">
                    <mxGeometry relative="1" as="geometry">
                        <Array as="points">
                            <mxPoint x="-10" y="585"/>
                        </Array>
                    </mxGeometry>
                </mxCell>
                <mxCell id="20" value="x &amp;gt; 0&lt;br&gt;&amp;amp;&lt;br&gt;y &amp;gt; 0" style="rhombus;whiteSpace=wrap;html=1;fontFamily=Courier New;fillColor=#e3c800;fontColor=#000000;strokeColor=#B09500;" vertex="1" parent="1">
                    <mxGeometry x="90" y="545" width="80" height="80" as="geometry"/>
                </mxCell>
                <mxCell id="42" style="edgeStyle=none;html=1;entryX=0.5;entryY=0;entryDx=0;entryDy=0;fontFamily=Courier New;fontSize=13;fontColor=#FFFFFF;" edge="1" parent="1" source="22" target="38">
                    <mxGeometry relative="1" as="geometry">
                        <Array as="points">
                            <mxPoint x="240" y="1000"/>
                            <mxPoint x="565" y="1000"/>
                        </Array>
                    </mxGeometry>
                </mxCell>
                <mxCell id="22" value="&lt;div style=&quot;font-size: 14px; line-height: 19px;&quot;&gt;&lt;font style=&quot;&quot;&gt;Los puntos que usted ingres贸 se encuentran en el cuadrante I&lt;/font&gt;&lt;/div&gt;" style="shape=document;whiteSpace=wrap;html=1;boundedLbl=1;fontFamily=Courier New;fillColor=#fa6800;fontColor=#FFFFFF;strokeColor=#C73500;" vertex="1" parent="1">
                    <mxGeometry x="150" y="650" width="180" height="80" as="geometry"/>
                </mxCell>
                <mxCell id="27" value="" style="edgeStyle=none;html=1;fontFamily=Courier New;fontSize=13;fontColor=#FFFFFF;" edge="1" parent="1" source="24" target="26">
                    <mxGeometry relative="1" as="geometry">
                        <Array as="points">
                            <mxPoint x="-150" y="730"/>
                        </Array>
                    </mxGeometry>
                </mxCell>
                <mxCell id="31" value="" style="edgeStyle=none;html=1;fontFamily=Courier New;fontSize=13;fontColor=#FFFFFF;" edge="1" parent="1" source="24" target="30">
                    <mxGeometry relative="1" as="geometry">
                        <Array as="points">
                            <mxPoint x="70" y="730"/>
                        </Array>
                    </mxGeometry>
                </mxCell>
                <mxCell id="24" value="x &amp;lt; 0&lt;br&gt;&amp;amp;&lt;br&gt;y &amp;gt; 0" style="rhombus;whiteSpace=wrap;html=1;fontFamily=Courier New;fillColor=#e3c800;fontColor=#FFFFFF;strokeColor=#B09500;" vertex="1" parent="1">
                    <mxGeometry x="-50" y="690" width="80" height="80" as="geometry"/>
                </mxCell>
                <mxCell id="29" value="" style="edgeStyle=none;html=1;fontFamily=Courier New;fontSize=13;fontColor=#FFFFFF;" edge="1" parent="1" source="26" target="37">
                    <mxGeometry relative="1" as="geometry">
                        <mxPoint x="-270" y="920" as="targetPoint"/>
                        <Array as="points">
                            <mxPoint x="-270" y="850"/>
                        </Array>
                    </mxGeometry>
                </mxCell>
                <mxCell id="35" style="edgeStyle=none;html=1;fontFamily=Courier New;fontSize=13;fontColor=#FFFFFF;" edge="1" parent="1" source="26" target="36">
                    <mxGeometry relative="1" as="geometry">
                        <mxPoint x="-70" y="930" as="targetPoint"/>
                        <Array as="points">
                            <mxPoint x="-70" y="850"/>
                        </Array>
                    </mxGeometry>
                </mxCell>
                <mxCell id="26" value="x &amp;lt; 0&lt;br&gt;&amp;amp;&lt;br&gt;y &amp;lt; 0" style="rhombus;whiteSpace=wrap;html=1;fontFamily=Courier New;fillColor=#e3c800;fontColor=#FFFFFF;strokeColor=#B09500;" vertex="1" parent="1">
                    <mxGeometry x="-190" y="810" width="80" height="80" as="geometry"/>
                </mxCell>
                <mxCell id="43" style="edgeStyle=none;html=1;entryX=0.5;entryY=0;entryDx=0;entryDy=0;fontFamily=Courier New;fontSize=13;fontColor=#FFFFFF;" edge="1" parent="1" source="30" target="38">
                    <mxGeometry relative="1" as="geometry">
                        <Array as="points">
                            <mxPoint x="70" y="1000"/>
                            <mxPoint x="565" y="1000"/>
                        </Array>
                    </mxGeometry>
                </mxCell>
                <mxCell id="30" value="&lt;div style=&quot;font-size: 14px; line-height: 19px;&quot;&gt;&lt;font style=&quot;&quot;&gt;Los puntos que usted ingres贸 se encuentran en el cuadrante II&lt;/font&gt;&lt;/div&gt;" style="shape=document;whiteSpace=wrap;html=1;boundedLbl=1;fontFamily=Courier New;fillColor=#fa6800;fontColor=#FFFFFF;strokeColor=#C73500;" vertex="1" parent="1">
                    <mxGeometry x="-20" y="810" width="180" height="80" as="geometry"/>
                </mxCell>
                <mxCell id="44" style="edgeStyle=none;html=1;entryX=0.5;entryY=0;entryDx=0;entryDy=0;fontFamily=Courier New;fontSize=13;fontColor=#FFFFFF;" edge="1" parent="1" source="36" target="38">
                    <mxGeometry relative="1" as="geometry">
                        <Array as="points">
                            <mxPoint x="-70" y="1000"/>
                            <mxPoint x="565" y="1000"/>
                        </Array>
                    </mxGeometry>
                </mxCell>
                <mxCell id="36" value="&lt;div style=&quot;font-size: 14px; line-height: 19px;&quot;&gt;Los puntos que usted ingres贸 se encuentran en el cuadrante III&lt;/div&gt;" style="shape=document;whiteSpace=wrap;html=1;boundedLbl=1;labelBackgroundColor=none;fontFamily=Courier New;fontSize=13;fontColor=#FFFFFF;fillColor=#fa6800;strokeColor=#C73500;" vertex="1" parent="1">
                    <mxGeometry x="-160" y="900" width="180" height="80" as="geometry"/>
                </mxCell>
                <mxCell id="45" style="edgeStyle=none;html=1;entryX=0.5;entryY=0;entryDx=0;entryDy=0;fontFamily=Courier New;fontSize=13;fontColor=#FFFFFF;" edge="1" parent="1" source="37" target="38">
                    <mxGeometry relative="1" as="geometry">
                        <Array as="points">
                            <mxPoint x="-270" y="1000"/>
                            <mxPoint x="565" y="1000"/>
                        </Array>
                    </mxGeometry>
                </mxCell>
                <mxCell id="37" value="&lt;div style=&quot;font-size: 14px; line-height: 19px;&quot;&gt;Los puntos que usted ingres贸 se encuentran en el cuadrante IV&lt;/div&gt;" style="shape=document;whiteSpace=wrap;html=1;boundedLbl=1;labelBackgroundColor=none;fontFamily=Courier New;fontSize=13;fontColor=#FFFFFF;fillColor=#fa6800;strokeColor=#C73500;" vertex="1" parent="1">
                    <mxGeometry x="-360" y="900" width="180" height="80" as="geometry"/>
                </mxCell>
                <mxCell id="38" value="FIN" style="ellipse;whiteSpace=wrap;html=1;labelBackgroundColor=none;fontFamily=Courier New;fontSize=13;fontColor=#ffffff;fillColor=#e51400;strokeColor=#B20000;" vertex="1" parent="1">
                    <mxGeometry x="505" y="1060" width="120" height="50" as="geometry"/>
                </mxCell>
            </root>
        </mxGraphModel>
    </diagram>
</mxfile>